<svg width="163" height="152" viewBox="0 0 163 152" fill="none" xmlns="http://www.w3.org/2000/svg">
<path d="M131.623 98.6537C131.863 98.8754 132.054 99.1395 132.183 99.4305C132.313 99.7215 132.379 100.034 132.378 100.349C132.379 100.664 132.313 100.976 132.184 101.267C132.054 101.558 131.863 101.822 131.623 102.043L124.676 108.546C124.439 108.77 124.157 108.947 123.846 109.068C123.535 109.189 123.201 109.251 122.864 109.25C122.204 109.25 121.546 109.017 121.051 108.546L96.7822 85.8468L72.5137 108.546C72.277 108.77 71.9947 108.948 71.6834 109.069C71.372 109.19 71.0379 109.251 70.7006 109.25C70.3636 109.251 70.0298 109.189 69.7187 109.068C69.4075 108.947 69.1253 108.77 68.8885 108.546L61.9406 102.043C61.7004 101.822 61.5098 101.558 61.3801 101.267C61.2504 100.976 61.1841 100.664 61.1852 100.349C61.1852 99.7111 61.4545 99.1019 61.9406 98.6537L86.3066 76L61.8763 53.3493C60.8748 52.4133 60.8748 50.8933 61.8763 49.9569L68.8188 43.4497C69.0569 43.2277 69.3396 43.0516 69.6508 42.9316C69.9619 42.8115 70.2954 42.7498 70.6322 42.75C71.3173 42.75 71.9658 43.0015 72.4439 43.4497L96.7819 65.8736L121.119 43.4497C121.357 43.2273 121.64 43.0509 121.951 42.9308C122.262 42.8107 122.595 42.7492 122.932 42.75C123.614 42.75 124.262 43.0015 124.745 43.4497L131.687 49.9569C132.689 50.893 132.689 52.413 131.687 53.3493L107.257 76L131.623 98.6537Z" fill="white"/>
<path d="M158.843 27.7753C156.008 25.1317 152.397 23.75 148.316 23.75H53.4844C45.7473 23.75 39.5667 26.5412 35.1131 32.1934L0 75.9816L35.1469 119.482L35.2042 119.551L35.2628 119.62C37.4607 122.248 39.8548 124.281 42.5818 125.681C45.8065 127.337 49.4746 128.25 53.4844 128.25H148.355C156.694 128.25 163 121.642 163 113.703V37.7031C163 33.8969 161.678 30.4187 158.843 27.7753ZM152.812 113.703C152.812 116.327 151.169 118.75 148.355 118.75H53.4844C48.6558 118.75 45.7377 116.771 43.2969 113.852L12.7344 76L43.2969 37.87C46.3213 34.0106 50.0356 33.25 53.4844 33.25H148.196C151.01 33.25 152.812 35.0796 152.812 37.7031V113.703Z" fill="white"/>
</svg>
