<svg width="21" height="19" viewBox="0 0 21 19" fill="none" xmlns="http://www.w3.org/2000/svg">
<path d="M8.40733 3.00734C8.40733 2.36651 8.60524 1.87645 9.00105 1.53719C9.39686 1.19792 9.83979 1.01886 10.3298 1.00001C10.933 1.00001 11.423 1.1885 11.8 1.56546C12.177 1.94242 12.3654 2.42305 12.3654 3.00734C12.3654 3.53509 12.1958 3.99687 11.8565 4.39268C11.5173 4.78849 11.0272 4.9864 10.3864 4.9864C9.7644 4.9864 9.28377 4.78849 8.9445 4.39268C8.60524 3.99687 8.42618 3.53509 8.40733 3.00734ZM1 9.48169C1 9.48169 1 9.35918 1 9.11415C1 8.86912 1.13194 8.68064 1.39581 8.5487H19.377C19.6597 8.69949 19.801 8.88797 19.801 9.11415C19.801 9.34033 19.6597 9.52881 19.377 9.67959H1.39581C1.13194 9.54766 1 9.35918 1 9.11415V9.48169ZM8.40733 15.221C8.40733 14.5801 8.60524 14.0901 9.00105 13.7508C9.39686 13.4115 9.83979 13.2325 10.3298 13.2136C10.933 13.2136 11.423 13.4021 11.8 13.7791C12.177 14.156 12.3654 14.6367 12.3654 15.221C12.3654 15.7487 12.1958 16.2105 11.8565 16.6063C11.5173 17.0021 11.0272 17.2 10.3864 17.2C9.7644 17.2 9.28377 17.0021 8.9445 16.6063C8.60524 16.2105 8.42618 15.7487 8.40733 15.221Z" fill="white" stroke="white" stroke-width="2"/>
</svg>
