<svg width="33" height="43" viewBox="0 0 33 43" fill="none" xmlns="http://www.w3.org/2000/svg">
<path d="M0.00012207 1.2464C0.00012207 0.811148 0.13861 0.494604 0.415586 0.296764C0.692562 0.0989239 0.949754 3.8743e-06 1.18716 3.8743e-06C1.66198 3.8743e-06 2.01809 0.27698 2.2555 0.830932C2.49291 1.38488 3.3634 3.62048 4.86699 7.53771L7.47847 14.4225H25.5215L28.0736 7.59706C28.4693 6.52872 28.8848 5.42082 29.32 4.27335C29.7553 3.12588 30.1114 2.21581 30.3883 1.54316C30.6653 0.8705 30.8038 0.534172 30.8038 0.534172C31.0016 0.17806 31.3775 3.8743e-06 31.9315 3.8743e-06C32.6437 0.0791399 32.9998 0.47482 32.9998 1.18704C32.9998 1.34532 30.4279 8.1708 25.2841 21.6635C20.1402 35.1562 17.509 41.9619 17.3903 42.0806C17.1924 42.3575 16.8957 42.496 16.5 42.496C16.1043 42.496 15.8075 42.3575 15.6097 42.0806C15.491 41.9223 12.8795 35.1364 7.77523 21.7228C2.67096 8.30928 0.0792581 1.4838 0.00012207 1.2464ZM24.5718 16.856C24.5718 16.8164 21.8812 16.7966 16.5 16.7966C11.1187 16.7966 8.4281 16.8164 8.4281 16.856L16.5 37.9259L24.5718 16.856Z" fill="white"/>
</svg>
