<svg width="23" height="28" viewBox="0 0 23 28" fill="none" xmlns="http://www.w3.org/2000/svg">
<path d="M1.00197 1.66839C1.00197 1.49016 1.0688 1.3342 1.20248 1.20053C1.33616 1.06685 1.44755 1.00001 1.53667 1.00001C1.7149 1.00001 3.43041 1.75751 6.6832 3.2725C9.93598 4.7875 13.1665 6.31364 16.3747 7.85091C19.5829 9.38819 21.1871 10.168 21.1871 10.1902C21.343 10.3016 21.421 10.4687 21.421 10.6915C21.421 10.9143 21.343 11.0814 21.1871 11.1928C21.1425 11.2374 17.8897 12.7858 11.4287 15.8381L1.80402 20.383H1.60351C1.20248 20.3385 1.00197 20.1157 1.00197 19.7147C1.00197 19.6924 1.00197 19.659 1.00197 19.6144C0.979686 19.4585 1.14678 19.2802 1.50325 19.0797C1.92656 18.8569 3.59751 18.0549 6.5161 16.6735C8.25389 15.8492 9.70205 15.1697 10.8606 14.635L19.1485 10.6915L10.259 6.48073C8.72176 5.74551 6.93941 4.8989 4.91199 3.94088C2.95141 3.02743 1.81516 2.48159 1.50325 2.30335C1.19134 2.12512 1.02425 1.91346 1.00197 1.66839ZM1.03538 26.198C1.03538 25.9752 1.20248 25.7524 1.53667 25.5296H20.8863C21.2428 25.6632 21.421 25.886 21.421 26.198C21.421 26.4653 21.2539 26.6881 20.9197 26.8663H1.50325C1.19134 26.7104 1.03538 26.4876 1.03538 26.198Z" fill="black" stroke="white" stroke-width="2"/>
</svg>
