<svg width="20" height="24" viewBox="0 0 20 24" fill="none" xmlns="http://www.w3.org/2000/svg">
<path d="M17.7121 1.00001C17.8629 1.00001 17.9949 1.05657 18.108 1.16968C18.2211 1.28279 18.2776 1.42418 18.2776 1.59384C18.2776 1.76351 18.2117 1.89547 18.0797 1.98973C18.0608 2.00858 15.5159 3.22452 10.4447 5.63755L2.92288 9.20053L9.93573 12.5373C15.365 15.1011 18.1174 16.4302 18.1928 16.5244C18.2494 16.6375 18.2776 16.7412 18.2776 16.8355C18.2776 17.1748 18.108 17.3633 17.7686 17.401H17.599L9.45501 13.5553C3.988 10.9726 1.23565 9.6624 1.19794 9.62469C1.06598 9.53043 1 9.37019 1 9.14397C1.01885 8.9366 1.14139 8.77636 1.36761 8.66325C1.51842 8.58785 4.21422 7.31535 9.45501 4.84577C14.6958 2.37619 17.3633 1.11312 17.4576 1.05657C17.533 1.01887 17.6178 1.00001 17.7121 1.00001ZM1.02828 22.3213C1.02828 22.1328 1.16967 21.9443 1.45244 21.7558H17.8252C18.1268 21.8689 18.2776 22.0574 18.2776 22.3213C18.2776 22.5476 18.1362 22.7361 17.8535 22.8869H1.42416C1.16024 22.7549 1.02828 22.5664 1.02828 22.3213Z" fill="white" stroke="white" stroke-width="2"/>
</svg>
