<svg width="20" height="19" viewBox="0 0 20 19" fill="none" xmlns="http://www.w3.org/2000/svg">
<g clip-path="url(#clip0_6_316)">
<path d="M0.348503 11.1948C0.444171 10.6208 0.813175 9.95794 1.45551 9.20627C2.09785 8.45459 2.89053 8.07192 3.83354 8.05826C4.31188 8.05826 4.74921 8.18126 5.14555 8.42726C5.54189 8.67326 5.83573 8.98076 6.02706 9.34977C6.60107 8.48876 7.29124 8.05826 8.09758 8.05826C8.60325 8.05826 9.04059 8.20859 9.40959 8.50926C9.7786 8.80993 9.96993 9.2131 9.9836 9.71877C9.9836 10.1151 9.88793 10.4363 9.6966 10.6823C9.50526 10.9283 9.32076 11.0786 9.14309 11.1333C8.96542 11.188 8.80825 11.2153 8.67159 11.2153C8.41192 11.2153 8.20008 11.1401 8.03608 10.9898C7.87208 10.8395 7.79008 10.6413 7.79008 10.3953C7.79008 9.76661 8.13175 9.3361 8.81509 9.10377C8.66475 8.9261 8.39142 8.83726 7.99508 8.83726C7.81741 8.83726 7.68758 8.85093 7.60558 8.87826C7.08624 9.09693 6.70357 9.54794 6.45756 10.2313C5.63756 13.2516 5.22755 15.0147 5.22755 15.5203C5.22755 15.903 5.33689 16.1763 5.55556 16.3403C5.77422 16.5043 6.01339 16.5863 6.27306 16.5863C6.77873 16.5863 7.27757 16.3608 7.76958 15.9098C8.26158 15.4588 8.59642 14.9053 8.77409 14.2493C8.81509 14.1126 8.85609 14.0375 8.89709 14.0238C8.93809 14.0101 9.04742 13.9965 9.22509 13.9828H9.30709C9.5121 13.9828 9.6146 14.0375 9.6146 14.1468C9.6146 14.1605 9.60093 14.2357 9.5736 14.3723C9.35493 15.1513 8.93126 15.8415 8.30258 16.4428C7.67391 17.0442 6.94274 17.3448 6.10906 17.3448C5.15238 17.3448 4.42804 16.9143 3.93604 16.0533C3.3757 16.9007 2.73336 17.3243 2.00902 17.3243H1.88602C1.21635 17.3243 0.738007 17.1467 0.451005 16.7913C0.164002 16.436 0.0136668 16.0602 0 15.6638C0 15.2265 0.129835 14.8712 0.389504 14.5978C0.649173 14.3245 0.956676 14.1878 1.31201 14.1878C1.89969 14.1878 2.19352 14.4748 2.19352 15.0488C2.19352 15.3222 2.11152 15.5613 1.94752 15.7663C1.78352 15.9713 1.62635 16.108 1.47601 16.1763C1.32568 16.2447 1.23685 16.2788 1.20951 16.2788L1.14801 16.2993C1.14801 16.313 1.18901 16.3403 1.27101 16.3813C1.35301 16.4223 1.46235 16.4702 1.59902 16.5248C1.73568 16.5795 1.86552 16.6 1.98852 16.5863C2.48052 16.5863 2.9042 16.2788 3.25953 15.6638C3.38253 15.4452 3.5397 14.9805 3.73104 14.2698C3.92237 13.5591 4.11371 12.8211 4.30504 12.0558C4.49638 11.2905 4.60571 10.8395 4.63305 10.7028C4.70138 10.3338 4.73555 10.0673 4.73555 9.90327C4.73555 9.5206 4.63305 9.24727 4.42804 9.08327C4.22304 8.91926 3.99071 8.83726 3.73104 8.83726C3.18437 8.83726 2.67186 9.05593 2.19352 9.49327C1.71518 9.93061 1.38035 10.4909 1.18901 11.1743C1.16168 11.2973 1.12751 11.3656 1.08651 11.3793C1.04551 11.393 0.936176 11.4066 0.758508 11.4203H0.471505C0.389504 11.3383 0.348503 11.2631 0.348503 11.1948Z" fill="white"/>
<path d="M11.2825 1.5967V1.2467H11.4825V1.1967H11.5325V0.996704H11.8825V1.2467H12.2825V0.996704H12.6825V1.2467H13.0825V0.996704H13.4825V1.2467H13.8825V0.996704H14.2825V1.2467H14.6825V0.996704H15.0825V1.2467H15.4825V0.996704H15.8825V1.2467H16.2825V0.996704H16.6825V1.2467H17.0825V0.996704H17.4825V1.2467H17.8825V0.996704H18.2825V1.2467H18.6825V0.996704H19.0325V1.1967H19.0825V1.2467H19.2825V1.5967H19.0325V1.9967H19.2825V2.3967H19.0325V2.7967H19.2825V3.1967H19.0325V3.5967H19.2825V3.9967H19.0325V4.3967H19.2825V4.7967H19.0325V5.1967H19.2825V5.5967H19.0325V5.9967H19.2825V6.3967H19.0325V6.7967H19.2825V7.1967H19.0325V7.5967H19.2825V7.9967H19.0325V8.3967H19.2825V8.7467H19.0825V8.7967H19.0325V8.9967H18.6825V8.7467H18.2825V8.9967H17.8825V8.7467H17.4825V8.9967H17.0825V8.7467H16.6825V8.9967H16.2825V8.7467H15.8825V8.9967H15.4825V8.7467H15.0825V8.9967H14.6825V8.7467H14.2825V8.9967H13.8825V8.7467H13.4825V8.9967H13.0825V8.7467H12.6825V8.9967H12.2825V8.7467H11.8825V8.9967H11.5325V8.79671H11.4825V8.7467H11.2825V8.39671H11.5325V7.99671H11.2825V7.5967H11.5325V7.1967H11.2825V6.7967H11.5325V6.3967H11.2825V5.9967H11.5325V5.5967H11.2825V5.1967H11.5325V4.7967H11.2825V4.3967H11.5325V3.9967H11.2825V3.5967H11.5325V3.1967H11.2825V2.7967H11.5325V2.3967H11.2825V1.9967H11.5325V1.5967H11.2825Z" stroke="white" stroke-width="0.5" stroke-dasharray="0.4 0.4"/>
</g>
<defs>
<clipPath id="clip0_6_316">
<rect width="20" height="18.3507" fill="white"/>
</clipPath>
</defs>
</svg>
