<svg width="13" height="11" viewBox="0 0 13 11" fill="none" xmlns="http://www.w3.org/2000/svg">
<g clip-path="url(#clip0_10_18)">
<path d="M3.01162 10.0775C2.49483 10.0775 2.23643 9.82672 2.23643 9.32512V9.07432L2.53282 8.43593C3.67282 6.03435 4.50121 3.95956 5.01801 2.21158L5.2004 1.66438H4.47081C3.89321 1.66438 3.48282 1.68718 3.23962 1.73278C2.99642 1.77838 2.70002 1.92278 2.35043 2.16598C2.18323 2.27238 2.01603 2.40918 1.84883 2.57637C1.68163 2.74357 1.53723 2.90317 1.41563 3.05517C1.29403 3.20717 1.22564 3.29837 1.21044 3.32877C1.18004 3.34397 1.06604 3.35157 0.868438 3.35157C0.579641 3.35157 0.435242 3.27557 0.435242 3.12357C0.435242 3.03237 0.579641 2.76637 0.868438 2.32558C1.15724 1.88478 1.57523 1.41358 2.12243 0.911988C2.66962 0.410392 3.20922 0.121594 3.74122 0.0455948C3.84761 0.015195 5.5576 -4.83915e-06 8.87117 -4.83915e-06C11.3032 -4.83915e-06 12.5495 0.0075951 12.6103 0.022795C12.9143 0.129194 13.0663 0.341992 13.0663 0.66119C13.0663 1.13239 12.8231 1.45158 12.3367 1.61878C12.2455 1.64918 11.7212 1.66438 10.7636 1.66438H9.30437L9.23597 2.05198C9.05357 3.14637 8.96237 4.05076 8.96237 4.76516C8.96237 5.55555 9.03077 6.26235 9.16757 6.88554C9.30437 7.50874 9.44877 7.99513 9.60077 8.34473C9.75277 8.69433 9.82877 8.90712 9.82877 8.98312C9.82877 9.24152 9.72237 9.48472 9.50957 9.71272C9.29677 9.94072 9.02317 10.0547 8.68878 10.0547C8.52158 10.0547 8.38478 10.0319 8.27838 9.98632C8.17198 9.94072 8.05038 9.75832 7.91358 9.43912C7.77678 9.11992 7.65518 8.66393 7.54878 8.07113C7.53358 7.93433 7.52599 7.59993 7.52599 7.06794C7.52599 6.32314 7.59438 5.52515 7.73118 4.67396C7.86798 3.82276 8.00478 3.12357 8.14158 2.57637C8.27838 2.02918 8.35438 1.72518 8.36958 1.66438H6.1352L6.1124 1.75558C6.1124 1.80118 5.968 2.40158 5.6792 3.55677C5.3904 4.71196 5.0636 5.93555 4.69881 7.22754C4.33401 8.51953 4.09841 9.25672 3.99201 9.43912C3.82481 9.86472 3.49802 10.0775 3.01162 10.0775Z" fill="white"/>
</g>
<defs>
<clipPath id="clip0_10_18">
<rect width="13" height="10.0775" fill="white"/>
</clipPath>
</defs>
</svg>
