<svg width="8" height="7" viewBox="0 0 8 7" fill="none" xmlns="http://www.w3.org/2000/svg">
<path d="M0.575806 3.55927C0.575806 3.55927 0.575806 3.51471 0.575806 3.4256C0.575806 3.33648 0.623792 3.26793 0.719765 3.21994H3.79431V1.67752L3.8046 0.135107C3.87315 0.04599 3.93827 0.00143129 3.99997 0.00143129C4.08909 0.00143129 4.15764 0.0528452 4.20563 0.155673V3.21994H7.26989C7.37272 3.27478 7.42413 3.34333 7.42413 3.4256C7.42413 3.50786 7.37272 3.57641 7.26989 3.63125H4.20563V6.69552C4.15078 6.79149 4.08909 6.83948 4.02054 6.83948H3.99997H3.9794C3.89714 6.83948 3.83545 6.79149 3.79431 6.69552V3.63125H0.719765C0.623792 3.58327 0.575806 3.51471 0.575806 3.4256V3.55927Z" fill="black" stroke="white" stroke-width="2"/>
</svg>
