<svg width="51" height="34" viewBox="0 0 51 34" fill="none" xmlns="http://www.w3.org/2000/svg">
<path d="M0.748787 20.5317C0.618734 20.5317 0.467006 20.4437 0.293603 20.2677C0.1202 20.0916 0.0226606 19.9376 0.000985246 19.8056C-0.0206902 19.6736 0.315279 19.3435 1.00889 18.8155C1.7025 18.2874 2.41779 17.7374 3.15476 17.1653C3.89172 16.5932 4.30355 16.2742 4.39025 16.2082C4.4336 16.1642 4.48779 16.1422 4.55282 16.1422H4.58533C4.71538 16.1422 4.86711 16.3292 5.04052 16.7032C5.21392 17.0773 5.79915 18.3644 6.79622 20.5647C7.20806 21.5108 7.54402 22.2699 7.80413 22.842L10.5677 28.9477C10.5894 28.9477 11.7165 26.6044 13.9491 21.9178C16.1817 17.2313 18.4142 12.5117 20.6468 7.75919C22.8794 3.00664 24.039 0.575356 24.1257 0.465343C24.2558 0.157307 24.4725 0.00328934 24.776 0.00328934C24.9277 0.00328934 25.0577 0.069297 25.1661 0.201312C25.2745 0.333328 25.3504 0.465343 25.3937 0.597359V0.795382L17.8182 16.7362L10.1776 32.7761C10.0909 32.9301 9.88497 33.0071 9.55984 33.0071C9.36476 33.0071 9.23471 32.9741 9.16968 32.9081C9.12633 32.8641 8.06423 30.5319 5.9834 25.9113L2.86214 18.9805L2.34193 19.3435C2.0168 19.6076 1.68083 19.8716 1.33402 20.1356C0.987216 20.3997 0.792137 20.5317 0.748787 20.5317Z" fill="white"/>
<path d="M51 2H25V0H51V2Z" fill="white"/>
<rect x="27.5" y="9.5" width="20" height="20" stroke="white" stroke-dasharray="0.4 0.4"/>
</svg>
