<svg width="25" height="22" viewBox="0 0 25 22" fill="none" xmlns="http://www.w3.org/2000/svg">
<path d="M23.3381 20.7767C23.3381 21.3763 23.0233 21.6761 22.3937 21.6761C22.2438 21.6761 21.914 21.4363 21.4043 20.9566C20.8946 20.4769 19.4855 19.0828 17.177 16.7743L12.5 12.0973L7.77803 16.8193C4.60007 19.9373 2.96611 21.5262 2.87617 21.5862C2.75625 21.6462 2.65131 21.6761 2.56137 21.6761C2.32152 21.6761 2.11166 21.5862 1.93177 21.4063C1.75189 21.2264 1.64695 21.0166 1.61697 20.7767C1.61697 20.5669 1.82684 20.2371 2.24657 19.7874C2.6663 19.3376 4.0754 17.9136 6.47387 15.5151L11.1509 10.8381L6.47387 6.16107C4.04542 3.73262 2.63632 2.30854 2.24657 1.8888C1.85682 1.46907 1.64695 1.13928 1.61697 0.899437C1.61697 0.629609 1.70692 0.419744 1.8868 0.26984C2.06669 0.119935 2.29154 0.0449834 2.56137 0.0449834C2.71127 0.0449834 2.81621 0.0599738 2.87617 0.0899546C2.96611 0.149916 4.60007 1.7389 7.77803 4.85691L12.5 9.57889L17.177 4.90188C19.4855 2.59335 20.8946 1.19925 21.4043 0.719552C21.914 0.239859 22.2438 1.21444e-05 22.3937 1.21444e-05C23.0233 1.21444e-05 23.3381 0.29982 23.3381 0.899437C23.3381 1.1093 23.1882 1.37913 22.8884 1.70892C22.5886 2.03871 21.1195 3.50777 18.4812 6.1161L13.8042 10.8381L18.4812 15.5601C20.9996 18.0784 22.4387 19.5325 22.7984 19.9223C23.1582 20.312 23.3381 20.5968 23.3381 20.7767Z" fill="black" stroke="white" stroke-width="2"/>
</svg>
